<svg viewBox="0 0 1496 400" xmlns="http://www.w3.org/2000/svg"><g><g><g><g><g><line x1="40" y1="356.1155392622087" x2="35" y2="356.1155392622087" style="visibility: inherit;" fill="rgb(0, 0, 0)" stroke="rgb(204, 204, 204)" stroke-width="1px"></line><line x1="40" y1="282.2627373051953" x2="35" y2="282.2627373051953" style="visibility: inherit;" fill="rgb(0, 0, 0)" stroke="rgb(204, 204, 204)" stroke-width="1px"></line><line x1="40" y1="221.92060441766125" x2="35" y2="221.92060441766125" style="visibility: inherit;" fill="rgb(0, 0, 0)" stroke="rgb(204, 204, 204)" stroke-width="1px"></line><line x1="40" y1="170.90205800763766" x2="35" y2="170.90205800763766" style="visibility: inherit;" fill="rgb(0, 0, 0)" stroke="rgb(204, 204, 204)" stroke-width="1px"></line><line x1="40" y1="126.70778290328215" x2="35" y2="126.70778290328215" style="visibility: inherit;" fill="rgb(0, 0, 0)" stroke="rgb(204, 204, 204)" stroke-width="1px"></line><line x1="40" y1="87.72566957311386" x2="35" y2="87.72566957311386" style="visibility: inherit;" fill="rgb(0, 0, 0)" stroke="rgb(204, 204, 204)" stroke-width="1px"></line><line x1="40" y1="52.85498094626877" x2="35" y2="52.85498094626877" style="visibility: inherit;" fill="rgb(0, 0, 0)" stroke="rgb(204, 204, 204)" stroke-width="1px"></line></g><g transform="translate(30, 0)"><text x="0" y="356.1155392622087" dx="0em" dy="0.3em" style="text-anchor: end; visibility: inherit; font-family: &quot;Helvetica Neue&quot;, sans-serif; font-size: 12px; font-weight: 200;" fill="rgb(50, 49, 63)" stroke="none" stroke-width="1px">0.4</text><text x="0" y="282.2627373051953" dx="0em" dy="0.3em" style="text-anchor: end; visibility: inherit; font-family: &quot;Helvetica Neue&quot;, sans-serif; font-size: 12px; font-weight: 200;" fill="rgb(50, 49, 63)" stroke="none" stroke-width="1px">0.5</text><text x="0" y="221.92060441766125" dx="0em" dy="0.3em" style="text-anchor: end; visibility: inherit; font-family: &quot;Helvetica Neue&quot;, sans-serif; font-size: 12px; font-weight: 200;" fill="rgb(50, 49, 63)" stroke="none" stroke-width="1px">0.6</text><text x="0" y="170.90205800763766" dx="0em" dy="0.3em" style="text-anchor: end; visibility: inherit; font-family: &quot;Helvetica Neue&quot;, sans-serif; font-size: 12px; font-weight: 200;" fill="rgb(50, 49, 63)" stroke="none" stroke-width="1px">0.7</text><text x="0" y="126.70778290328215" dx="0em" dy="0.3em" style="text-anchor: end; visibility: inherit; font-family: &quot;Helvetica Neue&quot;, sans-serif; font-size: 12px; font-weight: 200;" fill="rgb(50, 49, 63)" stroke="none" stroke-width="1px">0.8</text><text x="0" y="87.72566957311386" dx="0em" dy="0.3em" style="text-anchor: end; visibility: inherit; font-family: &quot;Helvetica Neue&quot;, sans-serif; font-size: 12px; font-weight: 200;" fill="rgb(50, 49, 63)" stroke="none" stroke-width="1px">0.9</text><text x="0" y="52.85498094626877" dx="0em" dy="0.3em" style="text-anchor: end; visibility: inherit; font-family: &quot;Helvetica Neue&quot;, sans-serif; font-size: 12px; font-weight: 200;" fill="rgb(50, 49, 63)" stroke="none" stroke-width="1px">1</text></g><line x1="40" y1="0" x2="40" y2="378" fill="rgb(0, 0, 0)" stroke="rgb(204, 204, 204)" stroke-width="1px"></line></g></g><g transform="translate(40, 0)" clip-path="url(#clip_0)"><clipPath id="clip_0"><rect width="1456" height="378"></rect></clipPath><g><g><g><line x1="0" y1="0" x2="0" y2="378" fill="rgb(0, 0, 0)" stroke="rgb(60, 60, 60)" stroke-width="1px" opacity="0.25"></line><line x1="121.33333333333333" y1="0" x2="121.33333333333333" y2="378" fill="rgb(0, 0, 0)" stroke="rgb(60, 60, 60)" stroke-width="1px" opacity="0.25"></line><line x1="242.66666666666666" y1="0" x2="242.66666666666666" y2="378" fill="rgb(0, 0, 0)" stroke="rgb(60, 60, 60)" stroke-width="1px" opacity="0.25"></line><line x1="364" y1="0" x2="364" y2="378" fill="rgb(0, 0, 0)" stroke="rgb(60, 60, 60)" stroke-width="1px" opacity="0.25"></line><line x1="485.3333333333333" y1="0" x2="485.3333333333333" y2="378" fill="rgb(0, 0, 0)" stroke="rgb(60, 60, 60)" stroke-width="1px" opacity="0.25"></line><line x1="606.6666666666667" y1="0" x2="606.6666666666667" y2="378" fill="rgb(0, 0, 0)" stroke="rgb(60, 60, 60)" stroke-width="1px" opacity="0.25"></line><line x1="728" y1="0" x2="728" y2="378" fill="rgb(0, 0, 0)" stroke="rgb(60, 60, 60)" stroke-width="1px" opacity="0.25"></line><line x1="849.3333333333334" y1="0" x2="849.3333333333334" y2="378" fill="rgb(0, 0, 0)" stroke="rgb(60, 60, 60)" stroke-width="1px" opacity="0.25"></line><line x1="970.6666666666666" y1="0" x2="970.6666666666666" y2="378" fill="rgb(0, 0, 0)" stroke="rgb(60, 60, 60)" stroke-width="1px" opacity="0.25"></line><line x1="1092" y1="0" x2="1092" y2="378" fill="rgb(0, 0, 0)" stroke="rgb(60, 60, 60)" stroke-width="1px" opacity="0.25"></line><line x1="1213.3333333333335" y1="0" x2="1213.3333333333335" y2="378" fill="rgb(0, 0, 0)" stroke="rgb(60, 60, 60)" stroke-width="1px" opacity="0.25"></line><line x1="1334.6666666666665" y1="0" x2="1334.6666666666665" y2="378" fill="rgb(0, 0, 0)" stroke="rgb(60, 60, 60)" stroke-width="1px" opacity="0.25"></line><line x1="1456" y1="0" x2="1456" y2="378" fill="rgb(0, 0, 0)" stroke="rgb(60, 60, 60)" stroke-width="1px" opacity="0.25"></line></g><g><line x1="0" y1="356.1155392622087" x2="1456" y2="356.1155392622087" fill="rgb(0, 0, 0)" stroke="rgb(60, 60, 60)" stroke-width="1px" opacity="0.25"></line><line x1="0" y1="282.2627373051953" x2="1456" y2="282.2627373051953" fill="rgb(0, 0, 0)" stroke="rgb(60, 60, 60)" stroke-width="1px" opacity="0.25"></line><line x1="0" y1="221.92060441766125" x2="1456" y2="221.92060441766125" fill="rgb(0, 0, 0)" stroke="rgb(60, 60, 60)" stroke-width="1px" opacity="0.25"></line><line x1="0" y1="170.90205800763766" x2="1456" y2="170.90205800763766" fill="rgb(0, 0, 0)" stroke="rgb(60, 60, 60)" stroke-width="1px" opacity="0.25"></line><line x1="0" y1="126.70778290328215" x2="1456" y2="126.70778290328215" fill="rgb(0, 0, 0)" stroke="rgb(60, 60, 60)" stroke-width="1px" opacity="0.25"></line><line x1="0" y1="87.72566957311386" x2="1456" y2="87.72566957311386" fill="rgb(0, 0, 0)" stroke="rgb(60, 60, 60)" stroke-width="1px" opacity="0.25"></line><line x1="0" y1="52.85498094626877" x2="1456" y2="52.85498094626877" fill="rgb(0, 0, 0)" stroke="rgb(60, 60, 60)" stroke-width="1px" opacity="0.25"></line></g></g></g><g><g><line x1="121.33333333333333" y1="0" x2="121.33333333333333" y2="378" fill="rgb(0, 0, 0)" stroke="rgb(153, 153, 153)" stroke-width="1.5px"></line></g></g><g><g><g><g><g><path stroke="rgb(255, 112, 67)" stroke-width="2px" d="M133.46666666666667,243.22178114352536L145.6,223.27439043372277L157.73333333333335,205.6979902470972L169.86666666666667,177.5933807861017L182,180.2865634763449L194.13333333333333,165.17938160166665L206.26666666666665,156.44016791897414L218.4,151.62188778281646L230.53333333333333,141.15960787729693L242.66666666666666,136.22947665476786L254.79999999999998,132.73154851373175L266.93333333333334,145.5347680258626L279.06666666666666,148.27017864859187L291.2,139.1680726472864L303.33333333333337,145.0655309259389L315.4666666666667,143.23414111665056L327.6,142.46432643775006L339.73333333333335,142.54110934509544L351.8666666666667,138.55904317468895L364,140.936988876078L376.1333333333334,132.97906649576763L388.26666666666665,129.7256659196122L400.40000000000003,125.72923181010509L412.5333333333333,132.83073775145536L424.6666666666667,127.30765342436305L436.8,132.07335285362112L448.93333333333334,133.9341275608283L461.06666666666666,141.32910034959878L473.2,134.16617349450516L485.3333333333333,138.51707074940293L497.4666666666667,128.57183087744562L509.59999999999997,122.33229747034417L521.7333333333333,117.61028415796562L533.8666666666667,129.66749158300186L546,122.88011438268583L558.1333333333333,124.58777664122925L570.2666666666667,127.89275384380349L582.4,124.58343358316387L594.5333333333333,122.32250249763328L606.6666666666667,124.65992469792181L618.8,134.27207008605947L630.9333333333334,132.47222478265448L643.0666666666666,130.8428031113809L655.2,129.07204963283434L667.3333333333333,105.42169965394578L679.4666666666667,94.70907851967763L691.6,90.18328284304431L703.7333333333333,88.97384767268346L715.8666666666667,86.95573481949566L728,89.03964252454767L740.1333333333333,88.385999241474L752.2666666666668,88.17439290662219L764.4,89.10808427820427L776.5333333333333,90.70176493248857L788.6666666666666,89.9826369872273L800.8000000000001,91.80316379341104L812.9333333333334,91.5192471377893L825.0666666666666,92.49743837186332L837.1999999999999,92.95429604657727L849.3333333333334,91.91800250132724L861.4666666666667,86.44663269681593L873.6,83.408441695857L885.7333333333332,81.5291328584035L897.8666666666667,79.94935987747465L910,80.03171756501342L922.1333333333333,79.34036067521191L934.2666666666668,79.60855182385052L946.4,79.34854958836303L958.5333333333333,79.8817555880342L970.6666666666666,79.40153751316393L982.8000000000001,80.02872432961567L994.9333333333334,80.02368544202153L1007.0666666666666,79.64797689490365L1019.1999999999999,79.4066330673229L1031.3333333333335,80.57126093136173L1043.4666666666667,79.60893837812364L1055.6,78.97588871334807L1067.7333333333333,78.99880736587386L1079.8666666666668,78.84290801874812L1092,78.57031208575518L1104.1333333333332,78.29004885486847L1116.2666666666667,77.9447701626313L1128.4,77.77854048475041L1140.5333333333333,77.31683355869137L1152.6666666666665,77.57537127015325L1164.8,77.56084104450804L1176.9333333333334,77.67840095413374L1189.0666666666666,77.99623727830436L1201.2,77.90340545091266L1213.3333333333335,77.8642382309639L1225.4666666666667,77.97151210047883L1237.6,77.81045043445522L1249.7333333333333,77.88690316109324L1261.8666666666668,77.73350436652288L1274,78.24662991448395L1286.1333333333332,78.02965055647218L1298.2666666666667,77.97940927700176L1310.4,77.99948129359836L1322.5333333333333,77.73974134200768L1334.6666666666665,77.73328464824482L1346.8,77.75118704953519L1358.9333333333334,77.69687562357211L1371.0666666666666,77.79769493247818L1383.2,77.86088382330831" style="fill: none;" fill="none"></path></g><g><path stroke="rgb(187, 187, 187)" stroke-width="2px" d="M133.46666666666667,324L145.6,246.2040781713207L157.73333333333335,204.36205750885185L169.86666666666667,179.7833529150308L182,161.97237656959547L194.13333333333333,149.9732414756637L206.26666666666665,142.2705211745065L218.4,135.65665657572106L230.53333333333333,132.12620204181422L242.66666666666666,128.69894494885384L254.79999999999998,125.2576518556757L266.93333333333334,123.55566656748505L279.06666666666666,122.29220630225223L291.2,120.98869877925097L303.33333333333337,119.82129561717403L315.4666666666667,118.89054038277891L327.6,117.6086733241786L339.73333333333335,117.24578038790224L351.8666666666667,116.02601470633158L364,115.04136312570569L376.1333333333334,114.82505927308608L388.26666666666665,113.48617658768796L400.40000000000003,112.4048175990776L412.5333333333333,112.10051500232277L424.6666666666667,111.41918003667888L436.8,111.60235740421462L448.93333333333334,111.09065302982196L461.06666666666666,110.70631087602192L473.2,110.42585857857335L485.3333333333333,109.78005729399507L497.4666666666667,109.49882759473633L509.59999999999997,109.60268644169224L521.7333333333333,109.46033915090999L533.8666666666667,109.42753071290105L546,109.36376148090136L558.1333333333333,108.53008844167164L570.2666666666667,108.85790456356915L582.4,108.47995398469374L594.5333333333333,108.47896549081537L606.6666666666667,108.79100685938852L618.8,108.11701803503462L630.9333333333334,107.87817658284547L643.0666666666666,107.86778270025701L655.2,107.04669822439706L667.3333333333333,93.9741467651736L679.4666666666667,85.4273080279342L691.6,80.6267530231064L703.7333333333333,78.01836648853242L715.8666666666667,76.26197869717032L728,75.20823604541482L740.1333333333333,74.66646926462812L752.2666666666668,74.38911428531071L764.4,74.49262219531369L776.5333333333333,74.41378929226033L788.6666666666666,74.64602856042927L800.8000000000001,74.5316015948153L812.9333333333334,74.83476686101528L825.0666666666666,74.51316189157308L837.1999999999999,74.75748261717598L849.3333333333334,74.49691286360542L861.4666666666667,69.49499011064091L873.6,65.44152157791751L885.7333333333332,63.01901512887298L897.8666666666667,61.22807494542087L910,60.1347643604376L922.1333333333333,59.57683829357006L934.2666666666668,59.06087536273236L946.4,58.742106158108925L958.5333333333333,58.401408883833824L970.6666666666666,58.207188465289164L982.8000000000001,58.0086648172242L994.9333333333334,57.400854989849506L1007.0666666666666,57.3773317935445L1019.1999999999999,57.32086159285592L1031.3333333333335,57.072212941583416L1043.4666666666667,56.41384763272646L1055.6,55.827422394323264L1067.7333333333333,55.383592223503456L1079.8666666666668,55.16179686368321L1092,55.106757268287424L1104.1333333333332,55.045022539367324L1116.2666666666667,54.90730962797528L1128.4,54.80302082135938L1140.5333333333333,54.62052736972515L1152.6666666666665,54.70509858935577L1164.8,54.67539051354129L1176.9333333333334,54.482094016210795L1189.0666666666666,54.41593055705562L1201.2,54.38801354539066L1213.3333333333335,54.36469850995587L1225.4666666666667,54.40098869475389L1237.6,54.27410657878153L1249.7333333333333,54.35506592795423L1261.8666666666668,54.197108089159144L1274,54.103586279326635L1286.1333333333332,54.048770533615595L1298.2666666666667,54.064033339883L1310.4,54.17417517961684L1322.5333333333333,54.10543646124819L1334.6666666666665,54.026504814319594L1346.8,54.085364231554024L1358.9333333333334,54.033403691338776L1371.0666666666666,54.01531193766539L1383.2,54.00000000000006" style="fill: none;" fill="none"></path></g></g></g></g><g opacity="0.2"><g><g><g><path stroke="rgb(255, 112, 67)" stroke-width="2px" d="M133.46666666666667,243.22178114352536L145.6,215.2044326006399L157.73333333333335,195.58203073836214L169.86666666666667,159.88203810487738L182,182.20381737433752L194.13333333333333,154.709186901038L206.26666666666665,150.23719491866797L218.4,148.1560600185543L230.53333333333333,133.73206211893032L242.66666666666666,132.6772932150777L254.79999999999998,130.20129776415286L266.93333333333334,155.2047876742741L279.06666666666666,150.28162419822172L291.2,132.6772932150777L303.33333333333337,149.43861814783742L315.4666666666667,141.9034111047728L327.6,141.9034111047728L339.73333333333335,142.59718006674143L351.8666666666667,135.6816860101735L364,142.68399059102683L376.1333333333334,127.2874723229971L388.26666666666665,127.3703828687106L400.40000000000003,122.8415996161886L412.5333333333333,138.1135376499126L424.6666666666667,123.33265464703092L436.8,135.5966672977152L448.93333333333334,135.29932428861215L461.06666666666666,146.83450428313236L473.2,129.03269731829897L485.3333333333333,141.73019585711995L497.4666666666667,121.49498547088314L509.59999999999997,117.84995341655411L521.7333333333333,114.20478243372696L533.8666666666667,138.75648499119288L546,118.01108389613029L558.1333333333333,125.84013578972392L570.2666666666667,130.32674647306712L582.4,122.18801519613356L594.5333333333333,120.68148859139245L606.6666666666667,126.37697231958353L618.8,141.47055573622694L630.9333333333334,131.16430523087564L643.0666666666666,129.65820231484653L655.2,127.78517321628709L667.3333333333333,89.16297518846545L679.4666666666667,87.10109504782872L691.6,86.91763617973243L703.7333333333333,88.0936174311787L715.8666666666667,85.49003632554911L728,90.56944157042591L740.1333333333333,87.90958578995901L752.2666666666668,88.019983719263L764.4,89.79144336805933L776.5333333333333,91.87018317039872L788.6666666666666,89.45858404420625L800.8000000000001,93.13869068778376L812.9333333333334,91.31211222336628L825.0666666666666,93.21344991397632L837.1999999999999,93.28824832125065L849.3333333333334,91.16344471153928L861.4666666666667,82.50832763233115L873.6,81.20772999100575L885.7333333333332,80.16375079204431L897.8666666666667,78.80070552993664L910,80.09186017232048L922.1333333333333,78.83650893203196L934.2666666666668,79.80449655007578L946.4,79.15884988610776L958.5333333333333,80.27159457874546L970.6666666666666,79.05136801528454L982.8000000000001,80.48738763085748L994.9333333333334,80.0200065794615L1007.0666666666666,79.37393977228442L1019.1999999999999,79.23053810557815L1031.3333333333335,81.42415598305479L1043.4666666666667,78.90810601509048L1055.6,78.51446029638333L1067.7333333333333,79.01554136373028L1079.8666666666668,78.72913167432688L1092,78.3714304639775L1104.1333333333332,78.0855773905264L1116.2666666666667,77.69290818196447L1128.4,77.6572282729366L1140.5333333333333,76.98014590602668L1152.6666666666665,77.76425827248391L1164.8,77.55023287433681L1176.9333333333334,77.76425827248391L1189.0666666666666,78.22848371550117L1201.2,77.83564502176694L1213.3333333333335,77.83564502176694L1225.4666666666667,78.04985512674398L1237.6,77.69290818196447L1249.7333333333333,77.94273274390775L1261.8666666666668,77.62155220998619L1274,78.62176791815779L1286.1333333333332,77.87132289536504L1298.2666666666667,77.94273274390775L1310.4,78.01413671817522L1322.5333333333333,77.55023287433681L1334.6666666666665,77.72857067110618L1346.8,77.76425827248391L1358.9333333333334,77.6572282729366L1371.0666666666666,77.87132289536504L1383.2,77.9070258936926" style="fill: none;" fill="none"></path></g><g><path stroke="rgb(187, 187, 187)" stroke-width="2px" d="M133.46666666666667,324L145.6,218.16893467475708L157.73333333333335,181.5782164942756L169.86666666666667,164.16271305907082L182,149.935297370221L194.13333333333333,141.59170953515965L206.26666666666665,136.7887179184008L218.4,130.92121138736593L230.53333333333333,129.57474160520763L242.66666666666666,126.21996646926061L254.79999999999998,122.76800294292053L266.93333333333334,122.31863859960478L279.06666666666666,121.37281519703077L291.2,120.04024772167998L303.33333333333337,118.97156811979914L315.4666666666667,118.21264342442532L327.6,116.67590399009237L339.73333333333335,116.98108206609623L351.8666666666667,115.1382899520072L364,114.32431097111112L376.1333333333334,114.66722424802083L388.26666666666665,112.51206275938318L400.40000000000003,111.61753876156922L412.5333333333333,111.87851909328401L424.6666666666667,110.92261915342823L436.8,111.7361599571152L448.93333333333334,110.71755475479563L461.06666666666666,110.42598282881181L473.2,110.22124927811342L485.3333333333333,109.30934991636144L497.4666666666667,109.29365154264087L509.59999999999997,109.67853477052824L521.7333333333333,109.35644950565529L533.8666666666667,109.40357920133732L546,109.31721108075794L558.1333333333333,107.92274413023387L570.2666666666667,109.09744959986637L582.4,108.20428316613317L594.5333333333333,108.47824378953703L606.6666666666667,109.019015403813L618.8,107.62580164504817L630.9333333333334,107.70390632393605L643.0666666666666,107.86019429317025L655.2,106.44850524127457L667.3333333333333,84.7457255055823L679.4666666666667,79.32373891551538L691.6,77.16531011301782L703.7333333333333,76.12687359929765L715.8666666666667,74.98549466077117L728,74.44100792112414L740.1333333333333,74.27148262935151L752.2666666666668,74.18676305505176L764.4,74.56821416481995L776.5333333333333,74.35624494667258L788.6666666666666,74.81569031705266L800.8000000000001,74.44808301084316L812.9333333333334,75.05628449691187L825.0666666666666,74.2785540959963L837.1999999999999,74.93597608864587L849.3333333333334,74.30679937746618L861.4666666666667,65.89022715281965L873.6,62.5131115305424L885.7333333333332,61.26146601999295L897.8666666666667,59.9265964400841L910,59.33880901066004L922.1333333333333,59.170087543622344L934.2666666666668,58.68467623484463L946.4,58.50956530398071L958.5333333333333,58.15288582423415L970.6666666666666,58.06545934749687L982.8000000000001,57.86379711796553L994.9333333333334,56.95779464589896L1007.0666666666666,57.36015847426012L1019.1999999999999,57.27963856885475L1031.3333333333335,56.890791524398196L1043.4666666666667,55.93399840595066L1055.6,55.39992639380216L1067.7333333333333,55.05992561828447L1079.8666666666668,54.99995705052061L1092,55.066578430296204L1104.1333333333332,54.99995705052061L1116.2666666666667,54.806801085263146L1128.4,54.726899916187335L1140.5333333333333,54.487351730740045L1152.6666666666665,54.7668580102046L1164.8,54.65370221838759L1176.9333333333334,54.34103877407085L1189.0666666666666,54.367632716055994L1201.2,54.367632716055994L1213.3333333333335,54.34767715111116L1225.4666666666667,54.42748681020345L1237.6,54.181500174993005L1249.7333333333333,54.41418716716487L1261.8666666666668,54.081830064309145L1274,54.03532233665885L1286.1333333333332,54.00875508221384L1298.2666666666667,54.07517721739157L1310.4,54.2546133122338L1322.5333333333333,54.05525907648371L1334.6666666666665,53.96888840517181L1346.8,54.12834432820915L1358.9333333333334,53.99547225467592L1371.0666666666666,54.00210370402402L1383.2,53.98882114342166" style="fill: none;" fill="none"></path></g></g></g></g></g></g><g transform="translate(40, 378)" clip-path="url(#clip_1)"><clipPath id="clip_1"><rect width="1456" height="22"></rect></clipPath><g><g><line x1="0" y1="0" x2="0" y2="5" style="visibility: inherit;" fill="rgb(0, 0, 0)" stroke="rgb(204, 204, 204)" stroke-width="1px"></line><line x1="121.33333333333333" y1="0" x2="121.33333333333333" y2="5" style="visibility: inherit;" fill="rgb(0, 0, 0)" stroke="rgb(204, 204, 204)" stroke-width="1px"></line><line x1="242.66666666666666" y1="0" x2="242.66666666666666" y2="5" style="visibility: inherit;" fill="rgb(0, 0, 0)" stroke="rgb(204, 204, 204)" stroke-width="1px"></line><line x1="364" y1="0" x2="364" y2="5" style="visibility: inherit;" fill="rgb(0, 0, 0)" stroke="rgb(204, 204, 204)" stroke-width="1px"></line><line x1="485.3333333333333" y1="0" x2="485.3333333333333" y2="5" style="visibility: inherit;" fill="rgb(0, 0, 0)" stroke="rgb(204, 204, 204)" stroke-width="1px"></line><line x1="606.6666666666667" y1="0" x2="606.6666666666667" y2="5" style="visibility: inherit;" fill="rgb(0, 0, 0)" stroke="rgb(204, 204, 204)" stroke-width="1px"></line><line x1="728" y1="0" x2="728" y2="5" style="visibility: inherit;" fill="rgb(0, 0, 0)" stroke="rgb(204, 204, 204)" stroke-width="1px"></line><line x1="849.3333333333334" y1="0" x2="849.3333333333334" y2="5" style="visibility: inherit;" fill="rgb(0, 0, 0)" stroke="rgb(204, 204, 204)" stroke-width="1px"></line><line x1="970.6666666666666" y1="0" x2="970.6666666666666" y2="5" style="visibility: inherit;" fill="rgb(0, 0, 0)" stroke="rgb(204, 204, 204)" stroke-width="1px"></line><line x1="1092" y1="0" x2="1092" y2="5" style="visibility: inherit;" fill="rgb(0, 0, 0)" stroke="rgb(204, 204, 204)" stroke-width="1px"></line><line x1="1213.3333333333335" y1="0" x2="1213.3333333333335" y2="5" style="visibility: inherit;" fill="rgb(0, 0, 0)" stroke="rgb(204, 204, 204)" stroke-width="1px"></line><line x1="1334.6666666666665" y1="0" x2="1334.6666666666665" y2="5" style="visibility: inherit;" fill="rgb(0, 0, 0)" stroke="rgb(204, 204, 204)" stroke-width="1px"></line><line x1="1456" y1="0" x2="1456" y2="5" style="visibility: inherit;" fill="rgb(0, 0, 0)" stroke="rgb(204, 204, 204)" stroke-width="1px"></line></g><g transform="translate(0, 8)"><text x="0" y="0" dx="0em" dy="0.95em" style="text-anchor: middle; visibility: hidden; font-family: &quot;Helvetica Neue&quot;, sans-serif; font-size: 12px; font-weight: 200;" fill="rgb(50, 49, 63)" stroke="none" stroke-width="1px">-10</text><text x="121.33333333333333" y="0" dx="0em" dy="0.95em" style="text-anchor: middle; visibility: inherit; font-family: &quot;Helvetica Neue&quot;, sans-serif; font-size: 12px; font-weight: 200;" fill="rgb(50, 49, 63)" stroke="none" stroke-width="1px">0</text><text x="242.66666666666666" y="0" dx="0em" dy="0.95em" style="text-anchor: middle; visibility: inherit; font-family: &quot;Helvetica Neue&quot;, sans-serif; font-size: 12px; font-weight: 200;" fill="rgb(50, 49, 63)" stroke="none" stroke-width="1px">10</text><text x="364" y="0" dx="0em" dy="0.95em" style="text-anchor: middle; visibility: inherit; font-family: &quot;Helvetica Neue&quot;, sans-serif; font-size: 12px; font-weight: 200;" fill="rgb(50, 49, 63)" stroke="none" stroke-width="1px">20</text><text x="485.3333333333333" y="0" dx="0em" dy="0.95em" style="text-anchor: middle; visibility: inherit; font-family: &quot;Helvetica Neue&quot;, sans-serif; font-size: 12px; font-weight: 200;" fill="rgb(50, 49, 63)" stroke="none" stroke-width="1px">30</text><text x="606.6666666666667" y="0" dx="0em" dy="0.95em" style="text-anchor: middle; visibility: inherit; font-family: &quot;Helvetica Neue&quot;, sans-serif; font-size: 12px; font-weight: 200;" fill="rgb(50, 49, 63)" stroke="none" stroke-width="1px">40</text><text x="728" y="0" dx="0em" dy="0.95em" style="text-anchor: middle; visibility: inherit; font-family: &quot;Helvetica Neue&quot;, sans-serif; font-size: 12px; font-weight: 200;" fill="rgb(50, 49, 63)" stroke="none" stroke-width="1px">50</text><text x="849.3333333333334" y="0" dx="0em" dy="0.95em" style="text-anchor: middle; visibility: inherit; font-family: &quot;Helvetica Neue&quot;, sans-serif; font-size: 12px; font-weight: 200;" fill="rgb(50, 49, 63)" stroke="none" stroke-width="1px">60</text><text x="970.6666666666666" y="0" dx="0em" dy="0.95em" style="text-anchor: middle; visibility: inherit; font-family: &quot;Helvetica Neue&quot;, sans-serif; font-size: 12px; font-weight: 200;" fill="rgb(50, 49, 63)" stroke="none" stroke-width="1px">70</text><text x="1092" y="0" dx="0em" dy="0.95em" style="text-anchor: middle; visibility: inherit; font-family: &quot;Helvetica Neue&quot;, sans-serif; font-size: 12px; font-weight: 200;" fill="rgb(50, 49, 63)" stroke="none" stroke-width="1px">80</text><text x="1213.3333333333335" y="0" dx="0em" dy="0.95em" style="text-anchor: middle; visibility: inherit; font-family: &quot;Helvetica Neue&quot;, sans-serif; font-size: 12px; font-weight: 200;" fill="rgb(50, 49, 63)" stroke="none" stroke-width="1px">90</text><text x="1334.6666666666665" y="0" dx="0em" dy="0.95em" style="text-anchor: middle; visibility: inherit; font-family: &quot;Helvetica Neue&quot;, sans-serif; font-size: 12px; font-weight: 200;" fill="rgb(50, 49, 63)" stroke="none" stroke-width="1px">100</text><text x="1456" y="0" dx="0em" dy="0.95em" style="text-anchor: middle; visibility: hidden; font-family: &quot;Helvetica Neue&quot;, sans-serif; font-size: 12px; font-weight: 200;" fill="rgb(50, 49, 63)" stroke="none" stroke-width="1px">110</text></g><line x1="0" y1="0" x2="1456" y2="0" fill="rgb(0, 0, 0)" stroke="rgb(204, 204, 204)" stroke-width="1px"></line></g></g></g></g></svg>